<svg width="40" height="40" viewBox="0 0 40 40" fill="none" xmlns="http://www.w3.org/2000/svg">
<g clip-path="url(#clip0)">
<path d="M10.1278 40C7.92192 40 5.8481 39.141 4.2884 37.5813C1.06858 34.3614 1.06858 29.1224 4.2884 25.9025L22.8171 7.37383C25.0033 5.18759 28.5607 5.18759 30.7468 7.37383C32.9331 9.56006 32.9331 13.1174 30.7468 15.3036L17.1179 28.9326C16.5764 29.4741 15.6984 29.4741 15.1568 28.9326C14.6152 28.391 14.6152 27.513 15.1568 26.9714L28.7857 13.3424C29.8906 12.2376 29.8906 10.4398 28.7857 9.33495C28.2504 8.79967 27.5389 8.50494 26.782 8.50494C26.0251 8.50494 25.3134 8.79967 24.7782 9.33495L6.24952 27.8637C4.11108 30.0021 4.11108 33.4817 6.24952 35.6201C7.2855 36.656 8.6628 37.2265 10.1278 37.2265C11.5927 37.2265 12.9701 36.656 14.006 35.6201L32.9696 16.6565C34.5062 15.1199 35.3524 13.077 35.3524 10.9039C35.3524 8.73079 34.5062 6.68785 32.9696 5.15126C29.7975 1.97915 24.6362 1.97924 21.4642 5.15126L7.40041 19.215C6.85894 19.7565 5.98086 19.7565 5.43929 19.215C4.89773 18.6734 4.89773 17.7954 5.43929 17.2538L19.5031 3.19005C23.7565 -1.06335 30.6773 -1.06335 34.9307 3.19005C36.9912 5.25046 38.1259 7.99 38.1259 10.9039C38.1259 13.8178 36.9912 16.5572 34.9307 18.6178L15.9671 37.5813C14.4074 39.1411 12.3336 40 10.1278 40Z" fill="#FBA76F"/>
</g>
<defs>
<clipPath id="clip0">
<rect width="40" height="40" fill="white"/>
</clipPath>
</defs>
</svg>
