<svg width="16" height="16" viewBox="0 0 16 16" fill="none" xmlns="http://www.w3.org/2000/svg">
<path fill-rule="evenodd" clip-rule="evenodd" d="M14.8555 14.8638C15.0508 15.0596 15.3672 15.0596 15.563 14.8643C15.7584 14.6695 15.7584 14.3526 15.563 14.1573L8.84967 7.43561L14.8633 1.42877C15.0591 1.23346 15.0591 0.917053 14.8638 0.721252C14.669 0.52594 14.3521 0.52594 14.1568 0.721252L8.14264 6.7276L2.13629 0.713928C1.94147 0.518616 1.62457 0.518616 1.42926 0.71344C1.23395 0.908752 1.23395 1.22565 1.42877 1.42096L7.43512 7.43463L0.71344 14.148C0.518127 14.3428 0.518127 14.6597 0.712952 14.855C0.908264 15.0504 1.22516 15.0504 1.42047 14.8555L8.14215 8.14215L14.8555 14.8638Z" fill="#FFD0B1"/>
</svg>
