<svg width="29" height="29" viewBox="0 0 29 29" fill="none" xmlns="http://www.w3.org/2000/svg">
<path fill-rule="evenodd" clip-rule="evenodd" d="M20.8636 7.42866C21.0592 7.23336 21.0594 6.91709 20.8641 6.72155C20.6688 6.52601 20.3525 6.52582 20.1569 6.72112L14.1429 12.7278L8.13613 6.71374C7.94083 6.5182 7.62457 6.518 7.42903 6.7133C7.23349 6.9086 7.23329 7.22487 7.42859 7.42041L13.4353 13.4345L6.71367 20.1479C6.51813 20.3432 6.51794 20.6595 6.71324 20.855C6.90854 21.0505 7.2248 21.0507 7.42035 20.8554L14.142 14.142L20.8554 20.8637C21.0507 21.0592 21.3669 21.0594 21.5625 20.8641C21.758 20.6688 21.7582 20.3526 21.5629 20.157L14.8495 13.4354L20.8636 7.42866Z" fill="#FBA76F" fill-opacity="0.1"/>
</svg>
