<svg width="60" height="60" viewBox="0 0 60 60" fill="none" xmlns="http://www.w3.org/2000/svg">
<path d="M19.8812 26.516C19.6478 26.516 19.4518 26.4413 19.2932 26.292C19.1438 26.1333 19.0692 25.9373 19.0692 25.704C19.0692 25.48 19.1438 25.2933 19.2932 25.144C19.4518 24.9947 19.6478 24.92 19.8812 24.92C20.1052 24.92 20.2965 24.9947 20.4552 25.144C20.6138 25.2933 20.6932 25.48 20.6932 25.704C20.6932 25.9373 20.6138 26.1333 20.4552 26.292C20.2965 26.4413 20.1052 26.516 19.8812 26.516ZM19.2932 35V28.056H20.4692V35H19.2932ZM22.5168 35V28.056H23.5808L23.6648 29.064C23.8888 28.6907 24.1874 28.4013 24.5608 28.196C24.9341 27.9907 25.3541 27.888 25.8208 27.888C26.3714 27.888 26.8428 28 27.2348 28.224C27.6361 28.448 27.9441 28.7887 28.1588 29.246C28.4014 28.826 28.7328 28.4947 29.1528 28.252C29.5821 28.0093 30.0441 27.888 30.5388 27.888C31.3694 27.888 32.0321 28.14 32.5268 28.644C33.0214 29.1387 33.2688 29.904 33.2688 30.94V35H32.1068V31.066C32.1068 30.3473 31.9621 29.806 31.6728 29.442C31.3834 29.078 30.9681 28.896 30.4268 28.896C29.8668 28.896 29.4001 29.1153 29.0268 29.554C28.6628 29.9833 28.4808 30.5993 28.4808 31.402V35H27.3048V31.066C27.3048 30.3473 27.1601 29.806 26.8708 29.442C26.5814 29.078 26.1661 28.896 25.6248 28.896C25.0741 28.896 24.6121 29.1153 24.2388 29.554C23.8748 29.9833 23.6928 30.5993 23.6928 31.402V35H22.5168ZM37.7842 32.816C37.3922 32.816 37.0329 32.7647 36.7062 32.662L36.0062 33.32C36.1089 33.3947 36.2349 33.46 36.3842 33.516C36.5429 33.5627 36.7669 33.6093 37.0562 33.656C37.3456 33.6933 37.7516 33.7353 38.2742 33.782C39.2076 33.8473 39.8749 34.062 40.2762 34.426C40.6776 34.79 40.8782 35.266 40.8782 35.854C40.8782 36.2553 40.7662 36.638 40.5422 37.002C40.3276 37.366 39.9916 37.6647 39.5342 37.898C39.0862 38.1313 38.5076 38.248 37.7982 38.248C37.1729 38.248 36.6176 38.164 36.1322 37.996C35.6469 37.8373 35.2689 37.59 34.9982 37.254C34.7276 36.9273 34.5922 36.512 34.5922 36.008C34.5922 35.7467 34.6622 35.462 34.8022 35.154C34.9422 34.8553 35.2036 34.5707 35.5862 34.3C35.3809 34.216 35.2036 34.1273 35.0542 34.034C34.9142 33.9313 34.7836 33.8193 34.6622 33.698V33.376L35.8522 32.2C35.3016 31.7333 35.0262 31.1173 35.0262 30.352C35.0262 29.8947 35.1336 29.4793 35.3482 29.106C35.5629 28.7327 35.8756 28.4387 36.2862 28.224C36.6969 28 37.1962 27.888 37.7842 27.888C38.1856 27.888 38.5496 27.944 38.8762 28.056H41.4382V28.938L40.1362 28.994C40.4069 29.386 40.5422 29.8387 40.5422 30.352C40.5422 30.8093 40.4302 31.2247 40.2062 31.598C39.9916 31.9713 39.6789 32.27 39.2682 32.494C38.8669 32.7087 38.3722 32.816 37.7842 32.816ZM37.7842 31.85C38.2789 31.85 38.6709 31.724 38.9602 31.472C39.2589 31.2107 39.4082 30.8373 39.4082 30.352C39.4082 29.876 39.2589 29.512 38.9602 29.26C38.6709 28.9987 38.2789 28.868 37.7842 28.868C37.2802 28.868 36.8789 28.9987 36.5802 29.26C36.2909 29.512 36.1462 29.876 36.1462 30.352C36.1462 30.8373 36.2909 31.2107 36.5802 31.472C36.8789 31.724 37.2802 31.85 37.7842 31.85ZM35.7402 35.896C35.7402 36.3627 35.9362 36.708 36.3282 36.932C36.7202 37.1653 37.2102 37.282 37.7982 37.282C38.3769 37.282 38.8389 37.156 39.1842 36.904C39.5389 36.652 39.7162 36.316 39.7162 35.896C39.7162 35.5973 39.5949 35.336 39.3522 35.112C39.1096 34.8973 38.6616 34.7713 38.0082 34.734C37.4949 34.6967 37.0516 34.65 36.6782 34.594C36.2956 34.7993 36.0436 35.0187 35.9222 35.252C35.8009 35.4947 35.7402 35.7093 35.7402 35.896Z" fill="white"/>
</svg>
