<svg width="300" height="300" viewBox="0 0 300 300" fill="none" xmlns="http://www.w3.org/2000/svg">
<path d="M122.699 144.096H126.047V159H122.699V144.096ZM122.447 138.732C122.447 138.18 122.651 137.736 123.059 137.4C123.491 137.04 123.959 136.86 124.463 136.86C124.967 136.86 125.423 137.04 125.831 137.4C126.239 137.736 126.443 138.18 126.443 138.732C126.443 139.284 126.239 139.74 125.831 140.1C125.423 140.436 124.967 140.604 124.463 140.604C123.959 140.604 123.491 140.436 123.059 140.1C122.651 139.74 122.447 139.284 122.447 138.732ZM134.899 144.096L135.115 146.94C135.691 145.86 136.471 145.02 137.455 144.42C138.463 143.796 139.615 143.484 140.911 143.484C142.135 143.484 143.155 143.772 143.971 144.348C144.811 144.924 145.327 145.704 145.519 146.688C146.119 145.68 146.899 144.9 147.859 144.348C148.843 143.772 149.887 143.484 150.991 143.484C152.431 143.484 153.571 143.904 154.411 144.744C155.275 145.584 155.731 146.652 155.779 147.948V159H152.431V149.208C152.383 148.44 152.179 147.804 151.819 147.3C151.483 146.772 150.895 146.484 150.055 146.436C149.167 146.436 148.387 146.7 147.715 147.228C147.043 147.732 146.515 148.404 146.131 149.244C145.747 150.084 145.543 150.972 145.519 151.908V159H142.135V149.208C142.111 148.44 141.907 147.804 141.523 147.3C141.163 146.772 140.551 146.484 139.687 146.436C138.823 146.436 138.055 146.7 137.383 147.228C136.711 147.732 136.183 148.404 135.799 149.244C135.415 150.084 135.223 150.984 135.223 151.944V159H131.875V144.096H134.899ZM168.782 166.38C167.126 166.38 165.746 166.092 164.642 165.516C163.538 164.964 162.518 164.256 161.582 163.392L163.562 161.088C164.33 161.856 165.122 162.432 165.938 162.816C166.754 163.224 167.678 163.428 168.71 163.428C170.39 163.428 171.674 163.02 172.562 162.204C173.45 161.412 173.906 160.356 173.93 159.036V156.3C173.426 157.188 172.646 157.92 171.59 158.496C170.534 159.072 169.286 159.36 167.846 159.36C166.454 159.36 165.182 159.012 164.03 158.316C162.902 157.62 161.99 156.684 161.294 155.508C160.622 154.308 160.286 152.964 160.286 151.476C160.286 149.916 160.646 148.536 161.366 147.336C162.086 146.136 163.034 145.2 164.21 144.528C165.386 143.832 166.67 143.484 168.062 143.484C169.358 143.484 170.534 143.736 171.59 144.24C172.646 144.744 173.438 145.392 173.966 146.184L174.254 144.096H177.314V159.108C177.314 160.452 176.966 161.676 176.27 162.78C175.574 163.884 174.59 164.76 173.318 165.408C172.046 166.056 170.534 166.38 168.782 166.38ZM163.67 151.368C163.67 152.352 163.898 153.24 164.354 154.032C164.81 154.8 165.422 155.424 166.19 155.904C166.982 156.36 167.858 156.588 168.818 156.588C170.114 156.588 171.218 156.24 172.13 155.544C173.066 154.824 173.666 153.912 173.93 152.808V149.856C173.618 148.8 172.994 147.936 172.058 147.264C171.122 146.592 170.042 146.256 168.818 146.256C167.834 146.256 166.946 146.472 166.154 146.904C165.386 147.336 164.774 147.936 164.318 148.704C163.886 149.472 163.67 150.36 163.67 151.368Z" fill="#434343" fill-opacity="0.7"/>
</svg>
