<svg width="30" height="30" viewBox="0 0 30 30" fill="none" xmlns="http://www.w3.org/2000/svg">
<path d="M11.2314 6.55366L29.0439 6.57244C29.5615 6.57244 29.9814 6.15241 29.9814 5.63497C29.9814 5.11745 29.5614 4.69749 29.0439 4.69749L11.2314 4.67871C10.7139 4.67871 10.2939 5.09874 10.2939 5.61619C10.2939 6.13363 10.7139 6.55366 11.2314 6.55366Z" fill="#434343"/>
<path d="M29.0625 14.0627L11.25 14.0439C10.7325 14.0439 10.3125 14.464 10.3125 14.9814C10.3125 15.499 10.7325 15.9189 11.25 15.9189L29.0625 15.9377C29.58 15.9377 29.9999 15.5177 29.9999 15.0002C29.9999 14.4828 29.58 14.0627 29.0625 14.0627Z" fill="#434343"/>
<path d="M29.0625 23.4382L11.25 23.4194C10.7325 23.4194 10.3125 23.8395 10.3125 24.3569C10.3125 24.8744 10.7325 25.2944 11.25 25.2944L29.0625 25.3132C29.58 25.3132 29.9999 24.8931 29.9999 24.3757C30 23.8582 29.58 23.4382 29.0625 23.4382Z" fill="#434343"/>
<path d="M3.74063 1.89404C1.67436 1.89404 0 3.56841 0 5.63467C0 7.70094 1.67436 9.3753 3.74063 9.3753C5.80689 9.3753 7.48126 7.70094 7.48126 5.63467C7.48126 3.56841 5.80689 1.89404 3.74063 1.89404ZM3.73128 7.5097C2.67753 7.5097 1.83287 6.68842 1.83287 5.63467C1.83287 4.58093 2.67753 3.75964 3.73128 3.75964C4.78502 3.75964 5.60623 4.58093 5.60623 5.63467C5.60623 6.68842 4.78502 7.5097 3.73128 7.5097Z" fill="#434343"/>
<path d="M3.74063 11.269C1.67436 11.269 0 12.9434 0 15.0097C0 17.0759 1.67436 18.7503 3.74063 18.7503C5.80689 18.7503 7.48126 17.0759 7.48126 15.0097C7.48126 12.9434 5.80689 11.269 3.74063 11.269ZM3.73128 16.8847C2.67753 16.8847 1.83287 16.0634 1.83287 15.0097C1.83287 13.9559 2.67753 13.1346 3.73128 13.1346C4.78502 13.1346 5.60631 13.9559 5.60631 15.0097C5.60623 16.0634 4.78502 16.8847 3.73128 16.8847Z" fill="#434343"/>
<path d="M3.74063 20.625C1.67436 20.625 0 22.2994 0 24.3656C0 26.4319 1.67436 28.1063 3.74063 28.1063C5.80689 28.1063 7.48126 26.4319 7.48126 24.3656C7.48126 22.2994 5.80689 20.625 3.74063 20.625ZM3.73128 26.2406C2.67753 26.2406 1.83287 25.4193 1.83287 24.3656C1.83287 23.3118 2.67753 22.4905 3.73128 22.4905C4.78502 22.4905 5.60631 23.3118 5.60631 24.3656C5.60631 25.4193 4.78502 26.2406 3.73128 26.2406Z" fill="#434343"/>
</svg>
