<svg width="40" height="30" viewBox="0 0 40 30" fill="none" xmlns="http://www.w3.org/2000/svg">
<circle cx="10.0004" cy="10.4" r="8.4" transform="rotate(90 10.0004 10.4)" fill="white"/>
<path fill-rule="evenodd" clip-rule="evenodd" d="M4.99951 10C4.99951 12.7614 7.23809 15 9.99951 15C12.7609 15 14.9995 12.7614 14.9995 10C14.9995 9.52976 14.9346 9.07467 14.8132 8.64323C14.5198 8.9841 14.0852 9.19994 13.6001 9.19994C12.7165 9.19994 12.0001 8.4836 12.0001 7.59994C12.0001 6.8901 12.4624 6.28823 13.1023 6.07891C12.2497 5.40339 11.1717 5 9.99951 5C7.23809 5 4.99951 7.23858 4.99951 10Z" fill="#434343"/>
<path fill-rule="evenodd" clip-rule="evenodd" d="M20 10C20 4.47715 15.5228 0 10 0C4.47715 0 0 4.47715 0 10V30H5C13.2843 30 20 23.2843 20 15V10ZM9.99987 2.00001C5.58159 2.00001 1.99987 5.58174 1.99987 10C1.99987 14.4183 5.58159 18 9.99987 18C14.4181 18 17.9999 14.4183 17.9999 10C17.9999 5.58174 14.4181 2.00001 9.99987 2.00001Z" fill="white"/>
<path fill-rule="evenodd" clip-rule="evenodd" d="M20 0L0 0C0 3.19161 0.747594 6.20861 2.07722 8.88544C2.61956 4.99475 5.96015 2.00001 10.0002 2.00001C14.4185 2.00001 18.0002 5.58173 18.0002 10C18.0002 14.04 15.0055 17.3806 11.1149 17.923C13.7917 19.2525 16.8085 20 20 20L40 20C40 8.95431 31.0457 0 20 0Z" fill="#FBA76F"/>
</svg>
