<svg width="30" height="30" viewBox="0 0 30 30" fill="none" xmlns="http://www.w3.org/2000/svg">
<path d="M14.4918 28.281H6.66707C4.54059 28.281 2.81521 26.5492 2.81521 24.4291V5.57088C2.81521 3.4444 4.54696 1.71902 6.66707 1.71902H14.6191C15.0966 1.71902 15.4786 1.33701 15.4786 0.859508C15.4786 0.382003 15.0966 0 14.6191 0H6.66707C3.59195 0 1.09619 2.50212 1.09619 5.57088V24.4291C1.09619 27.5042 3.59831 30 6.66707 30H14.4918C14.9693 30 15.3513 29.618 15.3513 29.1405C15.3513 28.663 14.9629 28.281 14.4918 28.281Z" fill="#434343"/>
<path d="M28.6517 14.3949L23.189 8.93228C22.8516 8.59484 22.3104 8.59484 21.973 8.93228C21.6356 9.26971 21.6356 9.81088 21.973 10.1483L25.9713 14.1466H8.53285C8.05534 14.1466 7.67334 14.5286 7.67334 15.0061C7.67334 15.4836 8.05534 15.8656 8.53285 15.8656H25.9713L21.973 19.864C21.6356 20.2014 21.6356 20.7426 21.973 21.08C22.1385 21.2455 22.3614 21.3347 22.5778 21.3347C22.7943 21.3347 23.0171 21.2519 23.1827 21.08L28.6453 15.6173C28.9891 15.2735 28.9891 14.726 28.6517 14.3949Z" fill="#434343"/>
</svg>
