<svg width="15" height="13" viewBox="0 0 15 13" fill="none" xmlns="http://www.w3.org/2000/svg">
<path d="M13.3602 0H1.63992C0.735626 0 0 0.735676 0 1.63992V8.06703C0 8.97128 0.735626 9.70695 1.63992 9.70695H9.17869L12.0325 12.5607C12.1194 12.6477 12.2356 12.6939 12.3539 12.6939C12.4125 12.6939 12.4716 12.6825 12.5278 12.6593C12.6976 12.5889 12.8083 12.4232 12.8083 12.2393V9.70695H13.3602C14.2644 9.70695 15.0001 8.97128 15.0001 8.06703V1.63992C15 0.735676 14.2644 0 13.3602 0ZM14.091 8.06703C14.091 8.47007 13.7631 8.79796 13.3601 8.79796H12.3538C12.1028 8.79796 11.8993 9.00143 11.8993 9.25246V11.1421L9.68828 8.93108C9.60304 8.84584 9.4874 8.79796 9.3669 8.79796H1.63992C1.23694 8.79796 0.908991 8.47007 0.908991 8.06703V1.63992C0.908991 1.23688 1.23688 0.90899 1.63992 0.90899H13.3602C13.7631 0.90899 14.0911 1.23688 14.0911 1.63992V8.06703H14.091Z" fill="white"/>
</svg>
