<svg width="60" height="60" viewBox="0 0 60 60" fill="none" xmlns="http://www.w3.org/2000/svg">
<circle cx="30" cy="30" r="30" fill="#F17171"/>
<path d="M46.8514 33.186C51.8993 16.8652 38.6737 16.2812 38.6737 16.2812C38.6737 16.2812 37.1011 12 30.0239 12C23.2282 12 18.9304 14.0871 13.0296 13.1616C12.6233 13.0978 12.2454 13.3848 12.2073 13.7944C11.9424 16.6457 11.3176 26.7905 15.1413 32.3775L46.8514 33.186Z" fill="#434343"/>
<path d="M18.695 30.1182C17.122 30.1182 15.766 31.043 15.1416 32.3772C15.4457 32.8217 15.7777 33.2376 16.1407 33.6184L19.1004 33.7125V30.1389C18.9672 30.1252 18.8319 30.1182 18.695 30.1182Z" fill="#434343"/>
<path d="M46.3886 34.5804C46.5577 34.1023 46.7094 33.639 46.8496 33.1854C46.4624 31.4311 44.8962 30.1182 43.0216 30.1182C42.8847 30.1182 42.7496 30.1253 42.6162 30.1389V34.4604L46.3886 34.5804Z" fill="#434343"/>
<path d="M14.9893 35.3071C14.9893 36.8491 16.4553 39.1792 18.1722 39.1792L19.1133 37.9195L20.3376 37.3952L19.1003 32.6931C18.9671 32.6795 18.8318 32.6724 18.6949 32.6724C16.978 32.6724 15.5199 33.7741 14.9893 35.3071Z" fill="#434343"/>
<path d="M18.6949 37.9424C16.9781 37.9424 15.52 36.8408 14.9893 35.3076C14.8507 35.708 14.7744 36.1374 14.7744 36.5848C14.7744 38.7453 16.5297 40.4967 18.6949 40.4967C18.9689 40.4967 19.2361 40.4686 19.4942 40.4151L19.9304 39.1796L19.1134 37.9198C18.9759 37.9346 18.8364 37.9424 18.6949 37.9424Z" fill="#434343"/>
<path d="M46.7272 35.3071C46.7272 36.8491 45.2612 39.1792 43.5443 39.1792L42.6032 37.9195L41.3789 37.3952L42.6162 32.6931C42.7494 32.6795 42.8847 32.6724 43.0216 32.6724C44.7385 32.6724 46.1966 33.7741 46.7272 35.3071Z" fill="#434343"/>
<path d="M43.0217 37.9424C44.7385 37.9424 46.1966 36.8408 46.7273 35.3076C46.8658 35.708 46.9421 36.1374 46.9421 36.5848C46.9421 38.7453 45.1868 40.4967 43.0217 40.4967C42.7477 40.4967 42.4804 40.4686 42.2224 40.4151L41.7861 39.1796L42.6032 37.9198C42.7406 37.9346 42.8802 37.9424 43.0217 37.9424Z" fill="#434343"/>
<path d="M42.2451 29.3954C42.4732 29.5199 42.6163 29.7581 42.6163 30.0181V34.8408V36.158C42.6163 42.6375 37.3521 47.8902 30.8584 47.8902C24.3648 47.8902 19.1006 42.6375 19.1006 36.158V34.8408V24.2069C19.1006 23.6681 19.6772 23.3244 20.1494 23.584C22.3188 24.776 27.8665 26.8531 36.9113 23.8645C37.2686 23.7465 37.6551 23.9275 37.7941 24.2771C38.2546 25.4352 39.5084 27.9024 42.2451 29.3954Z" fill="#FBA76F"/>
<path d="M30.8584 46.573C24.3648 46.573 19.1006 41.3203 19.1006 34.8408V37.3953C19.1006 43.8748 24.3648 49.1275 30.8584 49.1275C37.3521 49.1275 42.6163 43.8748 42.6163 37.3953V34.8408C42.6161 41.3203 37.3521 46.573 30.8584 46.573Z" fill="#FBA76F"/>
</svg>
