<svg width="50" height="50" viewBox="0 0 50 50" fill="none" xmlns="http://www.w3.org/2000/svg">
<circle cx="25" cy="25" r="25" fill="#FBA76F"/>
<path d="M39.0428 27.655C43.2494 14.0544 32.2281 13.5677 32.2281 13.5677C32.2281 13.5677 30.9176 10 25.0199 10C19.3568 10 15.7754 11.7392 10.858 10.968C10.5195 10.9148 10.2045 11.154 10.1728 11.4953C9.95201 13.8714 9.43131 22.3254 12.6177 26.9812L39.0428 27.655Z" fill="#434343"/>
<path d="M15.5793 25.0986C14.2685 25.0986 13.1385 25.8693 12.6182 26.9812C12.8716 27.3516 13.1483 27.6981 13.4507 28.0155L15.9172 28.0939V25.1159C15.8062 25.1045 15.6934 25.0986 15.5793 25.0986V25.0986Z" fill="#434343"/>
<path d="M38.6573 28.8172C38.7983 28.4187 38.9246 28.0327 39.0415 27.6547C38.7189 26.1927 37.4136 25.0986 35.8515 25.0986C35.7374 25.0986 35.6248 25.1046 35.5137 25.1159V28.7172L38.6573 28.8172Z" fill="#434343"/>
<path d="M12.4912 29.4227C12.4912 30.7077 13.7129 32.6494 15.1436 32.6494L15.9279 31.5997L16.9482 31.1627L15.9171 27.2444C15.806 27.233 15.6933 27.2271 15.5792 27.2271C14.1485 27.2271 12.9334 28.1452 12.4912 29.4227V29.4227Z" fill="#434343"/>
<path d="M15.5791 31.6185C14.1484 31.6185 12.9333 30.7005 12.4911 29.4229C12.3756 29.7565 12.312 30.1144 12.312 30.4872C12.312 32.2876 13.7748 33.7471 15.5791 33.7471C15.8074 33.7471 16.0301 33.7236 16.2452 33.6791L16.6087 32.6495L15.9278 31.5997C15.8132 31.612 15.697 31.6185 15.5791 31.6185V31.6185Z" fill="#434343"/>
<path d="M38.9394 29.4227C38.9394 30.7077 37.7176 32.6494 36.2869 32.6494L35.5026 31.5997L34.4824 31.1627L35.5135 27.2444C35.6245 27.233 35.7373 27.2271 35.8514 27.2271C37.2821 27.2271 38.4971 28.1452 38.9394 29.4227V29.4227Z" fill="#434343"/>
<path d="M35.8514 31.6185C37.2821 31.6185 38.4972 30.7005 38.9394 29.4229C39.0549 29.7565 39.1184 30.1144 39.1184 30.4872C39.1184 32.2876 37.6557 33.7471 35.8514 33.7471C35.623 33.7471 35.4003 33.7236 35.1853 33.6791L34.8218 32.6495L35.5026 31.5997C35.6172 31.612 35.7335 31.6185 35.8514 31.6185V31.6185Z" fill="#434343"/>
<path d="M35.2041 24.4961C35.3941 24.5998 35.5134 24.7983 35.5134 25.015V29.0339V30.1316C35.5134 35.5312 31.1266 39.9084 25.7152 39.9084C20.3038 39.9084 15.917 35.5312 15.917 30.1316V29.0339V20.1723C15.917 19.7233 16.3975 19.4369 16.791 19.6532C18.5989 20.6466 23.2219 22.3775 30.7593 19.887C31.057 19.7886 31.3791 19.9395 31.4949 20.2308C31.8787 21.1959 32.9235 23.2519 35.2041 24.4961V24.4961Z" fill="#FBA76F"/>
<path d="M25.7152 38.811C20.3038 38.811 15.917 34.4338 15.917 29.0342V31.1629C15.917 36.5625 20.3038 40.9397 25.7152 40.9397C31.1266 40.9397 35.5134 36.5625 35.5134 31.1629V29.0342C35.5133 34.4338 31.1266 38.811 25.7152 38.811Z" fill="#FBA76F"/>
</svg>
