<svg width="30" height="31" viewBox="0 0 30 31" fill="none" xmlns="http://www.w3.org/2000/svg">
<path d="M29.0428 17.655C33.2494 4.05436 22.2281 3.56768 22.2281 3.56768C22.2281 3.56768 20.9176 0 15.0199 0C9.3568 0 5.77537 1.73922 0.857994 0.967963C0.519453 0.914805 0.204512 1.15402 0.172778 1.49531C-0.0479898 3.8714 -0.56869 12.3254 2.61772 16.9812L29.0428 17.655Z" fill="#434343"/>
<path d="M5.57934 15.0986C4.26848 15.0986 3.13852 15.8693 2.61816 16.9812C2.87158 17.3516 3.14826 17.6981 3.45071 18.0155L5.91719 18.0939V15.1159C5.80618 15.1045 5.69344 15.0986 5.57934 15.0986Z" fill="#434343"/>
<path d="M28.6573 18.8172C28.7983 18.4187 28.9246 18.0327 29.0415 17.6547C28.7189 16.1927 27.4136 15.0986 25.8515 15.0986C25.7374 15.0986 25.6248 15.1046 25.5137 15.1159V18.7172L28.6573 18.8172Z" fill="#434343"/>
<path d="M2.49121 19.4227C2.49121 20.7077 3.71294 22.6494 5.14363 22.6494L5.92795 21.5997L6.94815 21.1627L5.91706 17.2444C5.80605 17.233 5.69332 17.2271 5.57921 17.2271C4.14851 17.2271 2.93343 18.1452 2.49121 19.4227Z" fill="#434343"/>
<path d="M5.57907 21.6185C4.14838 21.6185 2.9333 20.7005 2.49108 19.4229C2.3756 19.7565 2.31201 20.1144 2.31201 20.4872C2.31201 22.2876 3.77478 23.7471 5.57907 23.7471C5.8074 23.7471 6.03012 23.7236 6.24516 23.6791L6.60867 22.6495L5.92781 21.5997C5.81325 21.612 5.69696 21.6185 5.57907 21.6185Z" fill="#434343"/>
<path d="M28.9394 19.4227C28.9394 20.7077 27.7176 22.6494 26.2869 22.6494L25.5026 21.5997L24.4824 21.1627L25.5135 17.2444C25.6245 17.233 25.7373 17.2271 25.8514 17.2271C27.2821 17.2271 28.4971 18.1452 28.9394 19.4227Z" fill="#434343"/>
<path d="M25.8514 21.6185C27.2821 21.6185 28.4972 20.7005 28.9394 19.4229C29.0549 19.7565 29.1184 20.1144 29.1184 20.4872C29.1184 22.2876 27.6557 23.7471 25.8514 23.7471C25.623 23.7471 25.4003 23.7236 25.1853 23.6791L24.8218 22.6495L25.5026 21.5997C25.6172 21.612 25.7335 21.6185 25.8514 21.6185Z" fill="#434343"/>
<path d="M25.2041 14.4961C25.3941 14.5998 25.5134 14.7983 25.5134 15.015V19.0339V20.1316C25.5134 25.5312 21.1266 29.9084 15.7152 29.9084C10.3038 29.9084 5.91699 25.5312 5.91699 20.1316V19.0339V10.1723C5.91699 9.72332 6.39748 9.43691 6.79101 9.65321C8.59885 10.6466 13.2219 12.3775 20.7593 9.88704C21.057 9.78863 21.3791 9.93951 21.4949 10.2308C21.8787 11.1959 22.9235 13.2519 25.2041 14.4961Z" fill="#FBA76F"/>
<path d="M15.7152 28.811C10.3038 28.811 5.91699 24.4338 5.91699 19.0342V21.1629C5.91699 26.5625 10.3038 30.9397 15.7152 30.9397C21.1266 30.9397 25.5134 26.5625 25.5134 21.1629V19.0342C25.5133 24.4338 21.1266 28.811 15.7152 28.811Z" fill="#FBA76F"/>
</svg>
