<svg width="30" height="30" viewBox="0 0 30 30" fill="none" xmlns="http://www.w3.org/2000/svg">
<g clip-path="url(#clip0)">
<path d="M29.9299 11.5492C29.4699 10.1105 26.9381 9.78182 24.2573 9.42705C22.788 9.2343 21.1184 9.01641 20.6147 8.64302C20.1072 8.27242 19.3995 6.74812 18.7738 5.40073C17.6359 2.95086 16.5585 0.639728 15.0519 0.636003L15.024 0.631348C13.5304 0.656489 12.4419 2.93968 11.2845 5.36349C10.6466 6.70342 9.92125 8.22214 9.41563 8.58994C8.90443 8.95403 7.23486 9.15888 5.76084 9.33766C3.08283 9.66357 0.547296 9.96899 0.0742682 11.4002C-0.398759 12.8314 1.45145 14.5903 3.41246 16.4489C4.48888 17.4713 5.70777 18.6297 5.89958 19.2256C6.0914 19.8216 5.76643 21.4753 5.48243 22.9288C4.96284 25.577 4.47212 28.0846 5.68635 28.9813C5.97687 29.189 6.34188 29.2942 6.77301 29.2849C8.01238 29.2653 9.79554 28.3007 11.5191 27.3658C12.8106 26.66 14.2753 25.8638 14.9271 25.8564C15.5575 25.8564 17.0269 26.6749 18.3231 27.3965C20.0858 28.3752 21.9099 29.3883 23.1511 29.3678C23.5385 29.3622 23.869 29.2625 24.1391 29.0679C25.3608 28.188 24.8952 25.6813 24.4045 23.0229C24.1344 21.5665 23.8318 19.9091 24.0227 19.3131C24.2201 18.72 25.4529 17.5765 26.5396 16.5616C28.5183 14.7207 30.3862 12.9878 29.9299 11.5492Z" fill="#434343"/>
</g>
<defs>
<clipPath id="clip0">
<rect width="30" height="30" fill="white"/>
</clipPath>
</defs>
</svg>
